<svg width="73" height="16" xmlns="http://www.w3.org/2000/svg">
 <g>
  <title>Layer 1</title>
  <g stroke="null" id="Capa_1-2" data-name="Capa 1">
   <path stroke="null" d="m8.30989,7.55048c1.39035,-0.68883 2.09346,-1.8538 2.09346,-3.47428a3.76632,3.76632 0 0 0 -1.24274,-2.86799c-0.81897,-0.76025 -1.91887,-1.14434 -3.27271,-1.14434l-5.85819,0l0,15.70172l4.97732,0c3.83139,0 5.77407,-1.46177 5.77407,-4.34722a4.16152,4.16152 0 0 0 -0.8777,-2.62515a3.99328,3.99328 0 0 0 -1.5935,-1.24274zm-0.86182,-1.73317c-0.57455,0.49678 -1.42844,0.75072 -2.52516,0.75072l-2.66007,0l0,-4.5218l3.33302,0c1.75698,0 2.57595,0.7047 2.57595,2.22202a1.93157,1.93157 0 0 1 -0.72374,1.54906zm1.0999,5.51536c0,0.60629 0,2.45057 -3.41556,2.45057l-2.86958,0l0,-5.23761l2.6188,0c1.13323,0 2.04425,0.25712 2.69816,0.76183s0.96816,1.16021 0.96816,2.02521z" id="svg_1"/>
   <path stroke="null" d="m20.38655,12.4167c-0.63486,1.14593 -1.54748,1.70302 -2.77911,1.70302c-0.82849,0 -1.50938,-0.34124 -2.08076,-1.04117c-0.53011,-0.64756 -0.82056,-1.47923 -0.865,-2.47279l7.08347,0l0,-1.2856c0,-1.71571 -0.43329,-3.04892 -1.29194,-3.96789c-0.79358,-0.83802 -1.84903,-1.26179 -3.13939,-1.26179c-1.43955,0 -2.60293,0.54757 -3.45841,1.62525s-1.26972,2.51247 -1.26972,4.31706c0,1.9395 0.52059,3.45841 1.54589,4.51228c0.90309,0.95229 2.0633,1.42844 3.47269,1.42844c1.16021,0 2.14583,-0.28569 2.93624,-0.85389c0.5317,-0.39838 1.038,-1.0126 1.50145,-1.82523l0.14284,-0.25077l-1.67127,-0.86659l-0.12697,0.23966zm-5.66297,-3.66791c0.09523,-0.83167 0.35076,-1.50462 0.76025,-1.99981c0.4444,-0.53963 1.05704,-0.79358 1.87284,-0.79358a1.98394,1.98394 0 0 1 1.68715,0.8031c0.38092,0.50154 0.59201,1.17291 0.63486,1.99823l-4.9551,-0.00794z" id="svg_2"/>
   <path stroke="null" d="m27.41764,4.79359a4.48054,4.48054 0 0 0 -1.00943,1.05387l0,-1.54589l-2.0633,0l0,11.46402l2.0633,0l0,-6.27561c0.36028,-1.11101 0.79358,-1.92363 1.29036,-2.43469a2.67118,2.67118 0 0 1 2.02362,-0.85548l0.27458,0l0,-2.0633l-0.27775,0a3.90123,3.90123 0 0 0 -2.30137,0.65708z" id="svg_3"/>
   <path stroke="null" d="m38.12141,9.62331c-0.06349,-0.03492 -0.21109,-0.11745 -3.10765,-1.08879c-0.96182,-0.3333 -1.44907,-0.7539 -1.44907,-1.24909c0,-0.57455 0.17459,-1.33797 1.69349,-1.33797c0.95229,0 1.80618,0.47615 2.59658,1.42844l0.18252,0.2222l1.44748,-1.26972l-0.13491,-0.20157a4.36309,4.36309 0 0 0 -1.7046,-1.44907a5.18047,5.18047 0 0 0 -2.25059,-0.58566c-1.12529,-0.01428 -2.0506,0.25871 -2.75689,0.81421s-1.10307,1.37289 -1.13323,2.39025c-0.04603,1.24592 0.54281,2.18075 1.74587,2.77593l3.09178,1.06181c1.00626,0.36505 1.4951,0.84119 1.4951,1.45859a1.28242,1.28242 0 0 1 -0.47615,1.03165c-0.36505,0.32854 -0.90309,0.49519 -1.59668,0.49519c-1.21576,0 -2.16488,-0.50948 -2.89973,-1.56017l-0.15872,-0.2349l-1.64588,1.24115l0.15872,0.2222c1.08561,1.45225 2.62833,2.18869 4.58688,2.18869c1.12053,0 2.0633,-0.28727 2.80926,-0.85389a3.10606,3.10606 0 0 0 1.28718,-2.61246c0,-1.26496 -0.59994,-2.2363 -1.78079,-2.88703z" id="svg_4"/>
   <path stroke="null" d="m49.90921,4.87137c-0.60788,-0.51741 -1.40304,-0.77929 -2.36169,-0.77929c-1.06498,0 -2.0633,0.44123 -2.99496,1.31258l0,-5.34077l-2.0633,0l0,15.70172l2.0633,0l0,-8.3278c0.95229,-0.9888 1.90459,-1.49034 2.85688,-1.49034c1.02689,0 1.50462,0.52535 1.50462,1.65223l0,8.16591l2.0633,0l0,-8.20718c0,-1.16973 -0.36187,-2.07282 -1.06815,-2.68705z" id="svg_5"/>
   <polygon stroke="null" points="62.35725930570217,4.301576525679025 59.809873773895305,4.301576525679025 55.78485043563225,9.307462290165518 55.78485043563225,0.06387424541219389 53.718375203009344,0.06387424541219389 53.718375203009344,15.767180347887574 55.78485043563225,15.767180347887574 55.78485043563225,12.319880126502653 57.46247119734355,10.397836390521775 60.247926209806536,15.767180347887574 62.66040187632163,15.767180347887574 58.900438409530324,8.637682388451708 62.35725930570217,4.301576525679025 " id="svg_6"/>
   <path stroke="null" d="m72.78328,15.41801a9.24359,9.24359 0 0 1 -0.24283,-2.27915l0,-5.49632c0,-1.19354 -0.43964,-2.12203 -1.3094,-2.76324c-0.71581,-0.52217 -1.63953,-0.79358 -2.74419,-0.79358c-1.97442,0 -3.43143,0.82373 -4.33293,2.45057l-0.13808,0.24918l1.84745,0.96658l0.11269,-0.28727c0.40472,-1.0253 1.23322,-1.52367 2.53151,-1.52367c1.34273,0 1.96807,0.54598 1.96807,1.71571l0,0.35552c-2.38073,0.43805 -4.02185,0.98086 -5.03763,1.65858c-1.08403,0.72216 -1.63477,1.74587 -1.63477,3.01559c0,1.03006 0.34283,1.85538 1.01737,2.45374c0.62375,0.54757 1.41892,0.82532 2.36645,0.82532c1.26972,0 2.40454,-0.46662 3.39651,-1.38876l0.13015,1.17767l2.16647,0l-0.09682,-0.33648zm-2.30772,-5.49155l0,2.56167a5.52647,5.52647 0 0 1 -1.47129,1.15227a3.43778,3.43778 0 0 1 -1.60779,0.47615a1.58715,1.58715 0 0 1 -1.05863,-0.41583a1.23481,1.23481 0 0 1 -0.46821,-0.98404c0,-1.2729 1.54906,-2.21249 4.60592,-2.79022z" id="svg_7"/>
  </g>
 </g>

</svg>